PathFileType	4	(X/Y/Z)	C:/Users/beibeiliu/ov580/test_trc/User2\sequence.30_training_dense_left.trc
DataRate	CameraRate	NumFrames	NumMarkers	Units	OrigDataRate	OrigDataStartFrame	OrigNumFrames
120	120	23	19	mm	120	1	78
Frame#	Time	ThumbCMC			ThumbMCP			ThumbIP			ThumbTip			IndexMCP			IndexPIP			IndexTip			MiddleMCP			MiddlePIP			MiddleTip			RingMCP			RingPIP			RingTip			PinkyMCP			PinkyPIP			PinkyTip			BackHand1			BackHand2			BackHand3	
		X0	Y0	Z0	X1	Y1	Z1	X2	Y2	Z2	X3	Y3	Z3	X4	Y4	Z4	X5	Y5	Z5	X6	Y6	Z6	X7	Y7	Z7	X8	Y8	Z8	X9	Y9	Z9	X10	Y10	Z10	X11	Y11	Z11	X12	Y12	Z12	X13	Y13	Z13	X14	Y14	Z14	X15	Y15	Z15	X16	Y16	Z16	X17	Y17	Z17	X18	Y18	Z18	
0	0	-314.533	27.3892	-23.4649	-304.763	32.3905	-62.2246	-305.712	35.5222	-98.409	-303.085	34.0757	-125.963	-345.162	-18.495	-80.6995	-344.53	-8.4168	-106.839	-339.968	1.02592	-137.982	-331.773	-31.2392	-88.9869	-330.373	-23.2751	-120.374	-326.181	-14.5405	-150.31	-314.068	-41.134	-92.5403	-313.654	-35.5177	-117.419	-310.992	-21.8051	-144.211	-289.269	-45.4761	-85.5471	-291.936	-37.9381	-109.34	-298.212	-25.0523	-133.579	-297.793	-43.2898	-29.4509	-281.941	-31.2378	4.07879	-319.152	-18.7051	-7.40211	
1	0.00833333	-317.156	35.7459	-24.5528	-309.664	40.4476	-63.3212	-308.958	39.1959	-96.6262	-307.937	41.8561	-125.444	-363.45	2.06913	-78.1174	-360.898	10.773	-107.281	-354.598	18.7434	-135.297	-356.557	-12.9772	-87.698	-355.216	-6.69695	-114.765	-349.052	1.12868	-147.934	-338.441	-31.3218	-90.0475	-340.178	-19.9643	-115.506	-334.697	-5.49095	-146.697	-318.095	-37.9315	-80.7814	-321.316	-28.9337	-113.859	-323.076	-18.8768	-133.529	-317.749	-35.1588	-26.6888	-303.415	-28.0279	2.26316	-334.529	-4.25123	-7.22893	
2	0.0166667	-313.876	46.8029	-22.6171	-306.847	48.8886	-60.4063	-309.475	50.1693	-100.766	-306.346	49.8799	-121.121	-373.985	34.5136	-76.2551	-369.015	36.9249	-100.07	-365.299	46.167	-126.095	-371.746	9.64542	-80.5372	-370.199	19.029	-111.328	-366.07	27.2813	-141.112	-362.212	-6.13067	-83.0541	-360.183	2.99794	-115.998	-353.492	12.8367	-142.699	-344.367	-23.1818	-80.7921	-344.855	-12.8685	-109.534	-344.377	0.261052	-129.948	-338.615	-22.0904	-24.9956	-319.107	-17.8627	1.65362	-340.308	11.9125	-3.16066	
3	0.025	-304.066	58.1933	-24.3744	-297.713	54.8832	-61.1198	-299.026	56.5308	-97.0691	-295.971	56.9102	-119.239	-364.424	64.0387	-70.3367	-360.327	72.2161	-96.9982	-356.016	69.9612	-119.881	-371.186	45.3379	-72.9867	-368.23	52.4979	-107.363	-364.234	56.6668	-136.583	-370.386	26.2506	-80.0713	-367.834	31.9936	-109.551	-361.809	40.9744	-132.528	-357.529	5.66913	-73.5495	-358.703	16.5141	-102.057	-358.468	24.9436	-125.001	-351.606	2.80531	-23.4424	-330.638	-7.15387	2.6548	-340.258	34.0558	-0.839752	
4	0.0333333	-279.288	54.4523	-19.3572	-276.452	56.1564	-61.3004	-276.155	59.1562	-95.6966	-276.967	59.0804	-120.352	-333.243	93.601	-61.6607	-329.609	96.1178	-87.3771	-325.602	99.5109	-114.297	-346.687	81.0508	-72.4297	-341.299	85.8196	-103.399	-339.557	88.7758	-128.951	-356.886	54.6878	-76.0686	-352.149	65.8569	-105.203	-345.397	70.0832	-132.473	-355.36	32.0664	-74.3948	-349.784	44.6205	-96.2414	-349.821	52.9328	-120.759	-347.034	28.1393	-18.1833	-328.406	15.7654	6.42072	-320.915	50.7793	1.51466	
5	0.0416667	-254.484	48.2639	-21.2634	-250.633	47.0542	-58.932	-253.686	52.3615	-95.5668	-251.532	52.4946	-120.25	-288.518	103.358	-58.2532	-287.469	103.379	-89.9916	-281.708	106.392	-112.985	-309.673	93.3635	-70.346	-302.52	99.4034	-98.7706	-301.095	100.565	-128.842	-326.639	76.2512	-73.5006	-320.843	83.7945	-103.086	-314.091	87.0653	-127.2	-332.073	56.0727	-70.0574	-324.819	63.5409	-92.1155	-321.392	71.1044	-117.722	-321.88	46.1985	-13.3806	-313.542	25.004	8.0788	-289.494	58.574	4.4257	
6	0.05	-226.45	39.9481	-20.3886	-221.969	37.3958	-59.3296	-224.104	38.7114	-91.2655	-224.519	41.3846	-116.855	-251.379	99.1849	-65.4158	-243.849	100.505	-87.4888	-242.302	99.3547	-115.608	-271.584	95.3711	-73.0278	-262.493	98.5748	-98.6158	-258.196	100.755	-132.143	-288.033	84.1482	-71.592	-283.961	88.6274	-101.391	-273.611	94.0622	-130.769	-303.903	64.2183	-72.5807	-293.723	71.6521	-99.3423	-287.82	78.2348	-119.962	-293.283	53.1845	-15.5488	-293.846	30.6919	8.50398	-264.285	57.4414	4.90154	
7	0.0583333	-202.172	30.6289	-15.2071	-196.338	25.0734	-54.582	-195.093	28.5837	-93.2487	-193.078	25.5501	-115.88	-219.386	91.8951	-68.9209	-210.948	89.6394	-97.21	-210.812	85.5066	-120.932	-238.549	88.6161	-77.7423	-230.89	87.6022	-105.317	-220.568	85.8218	-139.424	-257.138	79.3077	-78.2273	-254.272	78.9901	-107.903	-244.264	80.0662	-133.234	-275.236	62.9576	-78.2143	-265.453	64.6163	-99.6484	-256.497	70.1756	-126.504	-273.435	53.2007	-19.4383	-272.001	35.6392	6.07994	-236.967	58.9388	3.09525	
8	0.0666667	-183.533	26.9427	-16.4453	-177.805	16.281	-53.5162	-177.217	12.7079	-87.0091	-174.032	8.61529	-114.247	-197.345	80.8207	-73.257	-190.09	74.3291	-104.572	-182.683	65.1192	-130.588	-217.051	76.9735	-81.0216	-210.446	69.6799	-115.694	-201.595	62.0103	-143.071	-236.91	66.9321	-86.2009	-232.095	62.649	-112.566	-218.571	59.5976	-139.826	-256.389	50.2964	-78.029	-245.165	49.4101	-102.07	-237.869	50.9707	-128.576	-250.378	52.3169	-23.1839	-252.893	34.6251	7.55478	-217.555	55.2865	-1.12723	
9	0.075	-174.817	23.7535	-13.4003	-163.359	6.16376	-49.9981	-160.202	-3.61242	-81.4669	-162.287	-12.6475	-103.349	-186.268	66.4768	-81.5275	-183.096	56.2008	-106.071	-176.682	41.4484	-131.911	-205.39	61.1671	-89.3462	-197.208	49.6396	-117.496	-190.976	34.3919	-143.788	-224.115	51.0177	-91.098	-223.741	40.9249	-114.707	-210.454	30.6583	-140.358	-242.434	35.5259	-77.3603	-234.748	27.7025	-105.878	-225.805	24.431	-127.52	-243.17	46.4532	-25.5238	-242.458	37.6803	4.32177	-206.694	54.6372	-3.95087	
10	0.0833333	-170.842	26.6737	-14.5635	-159.913	3.62685	-43.4606	-154.192	-12.3144	-74.682	-147.973	-25.1879	-95.4337	-188.707	49.7184	-88.2171	-178.507	36.6458	-109.706	-172.243	15.4823	-132.281	-205.458	40.8108	-95.5259	-195.225	25.2135	-117.534	-188.673	4.29331	-141.146	-228.333	26.4209	-92.5965	-219.142	14.5096	-114.893	-203.346	0.284039	-138.551	-238.897	14.9023	-77.9365	-229.124	3.19823	-103.091	-218.871	-5.28165	-122.956	-242.644	36.5918	-28.5276	-240.743	33.5194	1.04032	-210.514	53.5292	-10.3654	
11	0.0916667	-178.931	33.9355	-12.2161	-155.472	12.2781	-37.557	-143.261	-5.88359	-64.8539	-137.188	-20.7732	-81.6319	-193.727	39.6461	-92.516	-179.346	23.1885	-111.35	-169.064	4.73777	-125.086	-209.728	26.1306	-95.2802	-193.754	6.07743	-117.629	-176.184	-15.38	-136.326	-226.551	7.44323	-90.7518	-210.619	-5.49939	-110.426	-195.006	-22.143	-128.032	-231.723	-5.0822	-80.5442	-219.718	-17.177	-95.268	-207.376	-30.0227	-116.957	-248.447	25.3126	-33.8675	-249.225	26.0644	-0.170184	-218.572	52.1513	-18.6673	
12	0.1	-193.632	47.842	-19.3469	-165.849	29.4805	-36.2195	-139.976	17.154	-59.1441	-124.752	6.35413	-73.871	-201.652	36.9756	-96.1165	-181.596	26.3081	-110.561	-164.691	10.8802	-120.604	-210.254	19.4193	-97.6933	-186.79	2.4222	-115.009	-166.156	-12.6364	-127.063	-220.989	-6.30122	-90.7852	-196.86	-13.5708	-107.803	-175.37	-25.3325	-119.931	-226.075	-20.4203	-74.2705	-206.588	-27.9856	-89.1842	-187.194	-35.179	-109.244	-248.961	14.8484	-38.2507	-254.425	19.1351	-1.47277	-236.672	47.966	-22.3699	
13	0.108333	-213.599	61.6274	-19.9881	-178.786	55.2097	-41.0069	-152.885	47.3533	-63.544	-133.145	41.577	-75.6567	-217.343	37.2614	-96.0076	-193.905	34.9923	-110.496	-165.107	27.635	-121.779	-214.017	18.4704	-100.593	-185.68	14.803	-114.07	-159.397	9.25342	-123.544	-212.399	-3.97359	-91.6012	-190.5	-6.69543	-102.571	-163.602	-6.61171	-114.191	-212.58	-17.2178	-76.751	-187.959	-21.2519	-89.6436	-170.122	-19.7624	-104.144	-251.306	4.86156	-40.265	-261.319	10.0835	-7.02858	-257.003	42.7812	-25.782	
14	0.116667	-243.761	69.561	-27.0957	-210.003	76.5411	-43.5965	-181.322	78.9999	-66.3522	-161.64	78.2473	-79.324	-227.71	39.9098	-100.37	-205.065	46.4658	-111.924	-177.81	53.5216	-120.735	-220.579	24.1946	-99.0963	-191.566	32.5797	-112.601	-158.005	38.8659	-122.428	-207.062	5.96718	-89.2546	-182.812	13.1121	-100.601	-161.09	24.6481	-110.165	-198.8	-8.98344	-72.9597	-180.019	-1.5338	-83.3077	-157.551	7.20309	-100.737	-249.346	-4.19647	-37.8646	-260.058	3.62894	-9.09862	-270.567	30.245	-32.5742	
15	0.125	-262.939	64.6798	-30.562	-233.01	81.5034	-49.4177	-206.8	93.2192	-74.0531	-189.827	102.744	-81.7079	-236.442	40.0496	-101.539	-216.634	55.8615	-115.258	-188.475	69.7851	-122.629	-219.171	24.8995	-97.4171	-194.984	47.0336	-114.476	-171.275	62.0156	-122.325	-202.024	14.4361	-86.0066	-183.636	31.1335	-98.7349	-163.071	49.3044	-109.277	-189.262	7.09253	-68.1363	-175.181	23.0854	-81.2073	-159.406	36.5552	-97.8734	-239.467	-3.02098	-39.35	-254.059	-1.60106	-7.51955	-274.296	18.0935	-37.163	
16	0.133333	-274.925	57.1113	-30.8755	-249.652	82.0701	-54.5635	-229.401	97.7306	-74.2533	-213.468	111.232	-90.1318	-240.34	34.6717	-100.144	-220.331	56.0741	-115.809	-203.79	75.4165	-124.794	-218.481	26.0325	-95.2368	-198.762	49.8468	-114.017	-181.468	73.0924	-124.483	-201.726	24.3689	-86.9355	-182.79	42.2383	-100.724	-168.873	66.2158	-114.941	-187.308	22.144	-67.7737	-176.55	38.3136	-80.7696	-165.787	53.9656	-97.0617	-232.214	-2.00522	-32.7208	-246.581	-3.72676	-7.32741	-268.532	8.42109	-35.5776	
17	0.141667	-280.486	54.4304	-31.6455	-260.787	79.4198	-50.6457	-243.04	97.3963	-75.7406	-231.007	112.773	-92.7666	-250.963	32.2471	-101.451	-231.422	53.5121	-118.937	-218.149	74.4839	-129.171	-224.791	27.5589	-101.069	-212.139	49.5709	-118.944	-192.684	77.5621	-132.468	-204.847	24.1071	-89.0265	-192.445	41.3116	-104.678	-186.187	68.2026	-122.122	-195.297	24.1402	-69.5216	-182.557	43.1711	-87.8805	-176.873	56.5909	-102.485	-233.008	-0.547816	-35.2767	-242.019	-2.68103	-5.17982	-268.192	6.34839	-30.6258	
18	0.15	-285.729	56.3864	-30.2781	-266.9	78.9477	-49.6794	-250.562	97.9938	-81.1141	-238.788	108.576	-94.9744	-261.876	32.4184	-99.1968	-247.678	51.4229	-120.796	-229.956	72.6898	-132.065	-239.553	25.019	-100.699	-221.51	49.3582	-123.769	-208.679	70.6792	-135.848	-217.791	21.6629	-90.4942	-203.149	40.6079	-110.802	-196.201	66.2454	-129.259	-204.137	23.4199	-72.7754	-196.316	41.7977	-94.4374	-191.304	54.4049	-110.27	-241.057	1.76299	-33.6343	-247.671	-1.70257	-1.59811	-273.553	10.3807	-26.7452	
19	0.158333	-289.444	61.0871	-24.4113	-274.772	86.4524	-49.1215	-259.86	101.35	-76.7809	-249.714	115.145	-94.5926	-270.207	37.5842	-100.657	-261.017	53.9152	-117.898	-243.732	76.85	-132.011	-250.564	30.3614	-102.818	-240.624	52.6362	-123.834	-223.036	74.8803	-137.875	-227.075	26.3233	-94.2519	-219.392	42.4203	-111.29	-210.492	67.96	-131.211	-213.549	23.9523	-73.4296	-205.327	40.242	-94.2621	-199.153	55.9662	-113.389	-249.189	3.22053	-35.5806	-255.137	5.79864	0.587192	-287.049	16.6123	-23.9416	
20	0.166667	-294.217	67.5521	-17.5129	-279.532	92.9607	-47.414	-266.607	109.247	-75.9438	-255.342	122.466	-94.0001	-282.058	43.9491	-93.9922	-267.419	63.3119	-117.392	-252.604	85.1706	-131.974	-259.255	36.2176	-97.7896	-251.251	58.8797	-121.985	-233.611	83.4143	-138.736	-238.188	32.0042	-91.0904	-226.469	50.8662	-114.923	-222.293	73.0135	-130.379	-222.826	30.478	-74.3149	-214.535	46.1073	-95.2168	-211.796	59.8792	-115.465	-255.368	12.1328	-33.4147	-260.553	11.009	-2.17947	-289.404	21.4962	-24.0836	
21	0.175	-298.248	74.804	-17.737	-284.208	99.6995	-38.5872	-271.709	117.195	-70.4133	-258.489	126.831	-86.0198	-286.91	54.6897	-93.8863	-277.414	71.6109	-115.387	-262.167	90.5242	-130.746	-268.599	46.8334	-100.617	-253.416	66.9544	-122.726	-240.083	88.3284	-138.747	-245.527	38.4451	-90.3257	-235.121	56.6921	-114.942	-226.428	76.7209	-131.668	-229.635	37.0213	-77.2718	-221.752	51.6721	-99.4432	-215.751	62.4357	-116.349	-260.339	18.1172	-34.198	-263.079	15.778	1.4281	-293.618	30.0501	-20.4522	
22	0.183333	-296.104	81.9521	-11.8919	-285.165	105.119	-40.7809	-273.032	121.997	-70.4556	-257.174	128.719	-92.2009	-290.069	61.9056	-90.4063	-276.924	77.0922	-114.596	-261.23	94.5277	-130.657	-268.519	52.5824	-97.979	-252.365	67.498	-120.564	-235.79	91.6885	-143.697	-249.147	44.2416	-89.4058	-234.977	56.7746	-114.269	-229.763	78.356	-134.588	-227.437	38.4057	-76.1747	-219.75	51.9622	-100.623	-213.974	59.7667	-119.899	-257.454	22.2506	-33.4801	-262.655	18.1183	1.98327	-293.624	36.7036	-19.2534	
